<?xml version="1.0" encoding="UTF-8"?>
<svg version="1.1" xmlns="http://www.w3.org/2000/svg" width="3551" height="4452">
<path d="M0 0 C7.78425051 -0.09093226 15.5627672 -0.05686327 23.34667969 0.05029297 C24.34785828 0.06319366 24.34785828 0.06319366 25.3692627 0.07635498 C112.59722177 1.23247278 199.6130843 11.06439184 284.34667969 32.05029297 C285.52686676 32.34163116 285.52686676 32.34163116 286.730896 32.63885498 C343.33048594 46.64510052 398.30995074 65.84117593 451.34667969 90.05029297 C452.53100586 90.58831543 453.71533203 91.12633789 454.93554688 91.68066406 C468.79791904 97.98356676 482.52709711 104.44859896 495.90625 111.72851562 C498.58375514 113.17869698 501.2731189 114.6053112 503.96386719 116.03076172 C538.231157 134.26780548 570.94768794 155.24845182 602.34667969 178.05029297 C603.06823242 178.57204102 603.78978516 179.09378906 604.53320312 179.63134766 C615.15877493 187.32633969 625.51870639 195.25872439 635.62304688 203.62646484 C638.05898034 205.6386977 640.51710444 207.62337047 642.97167969 209.61279297 C652.13208229 217.12019059 661.11430927 224.84407919 669.87011719 232.81982422 C671.96805543 234.70929226 674.08513112 236.5708128 676.21386719 238.42529297 C688.25400615 248.94817865 699.59568691 260.19645264 710.90917969 271.48779297 C711.82745544 272.40218643 711.82745544 272.40218643 712.76428223 273.33505249 C724.54272653 285.07423005 724.54272653 285.07423005 729.86303711 291.3215332 C732.384387 294.25944312 735.065701 297.04711422 737.72167969 299.86279297 C742.3494028 304.80778159 746.74495787 309.86256535 750.97949219 315.15185547 C753.81655153 318.6256146 756.76549901 321.99050311 759.72167969 325.36279297 C765.40039095 331.8662989 770.79951575 338.54444125 776.06445312 345.38574219 C777.29072215 346.97765045 778.52553489 348.56296639 779.76074219 350.14794922 C814.1025396 394.38958073 844.01858573 441.64084309 870.34667969 491.05029297 C870.87551758 492.0394873 871.40435547 493.02868164 871.94921875 494.04785156 C913.77986734 572.58828763 944.57488519 656.97845151 1009.09667969 1027.48779297 C1009.155755 1028.54292084 1009.21483032 1029.59804871 1009.2756958 1030.68515015 C1010.89763401 1060.16964903 1011.55871198 1089.65051744 1011.53417969 1119.17529297 C1011.53391281 1119.90406773 1011.53364594 1120.63284248 1011.53337097 1121.38370132 C1011.49209698 1211.83642979 1002.65898056 1302.12576136 954.98486328 1487.84512329 C952.83162262 1494.52246165 950.71248712 1501.21010928 948.60449219 1507.90185547 C923.49858115 1587.50303673 892.2070873 1665.11255602 851.34667969 1738.05029297 C850.74339844 1739.12794922 850.14011719 1740.20560547 849.51855469 1741.31591797 C835.59882182 1766.09983258 820.73122419 1790.14555492 804.97167969 1813.80029297 C804.37158081 1814.70152893 803.77148193 1815.60276489 803.15319824 1816.53131104 C796.06070983 1827.16858779 788.86836206 1837.71155146 781.34667969 1848.05029297 C780.71197754 1848.92411621 780.07727539 1849.79793945 779.42333984 1850.69824219 C777.73818012 1853.00839888 776.04516542 1855.31242031 774.34667969 1857.61279297 C773.75056885 1858.42014893 773.15445801 1859.22750488 772.5402832 1860.05932617 C763.93076427 1871.69196422 755.00611119 1883.02859044 745.83935547 1894.22558594 C744.52481766 1895.83252993 743.21469667 1897.44308487 741.90527344 1899.05419922 C733.95177714 1908.82888966 725.86038855 1918.46828657 717.38574219 1927.79638672 C715.55581722 1929.81911987 713.75786241 1931.86398732 711.97167969 1933.92529297 C707.70609947 1938.81415431 703.31930678 1943.59074833 698.9140625 1948.35351562 C697.86968892 1949.48410697 696.82736561 1950.6165957 695.78710938 1951.75097656 C687.21543321 1961.09217326 678.36267468 1970.13951179 669.40917969 1979.11279297 C668.87097595 1979.6535849 668.33277222 1980.19437683 667.77825928 1980.7515564 C662.3974557 1986.15278301 657.00260082 1991.48480253 651.20385742 1996.44262695 C647.82004993 1999.37182011 644.59530852 2002.47297855 641.34667969 2005.55029297 C636.11407604 2010.50695853 630.80276306 2015.34042348 625.34667969 2020.05029297 C624.47342041 2020.80681152 624.47342041 2020.80681152 623.58251953 2021.57861328 C615.93527596 2028.19137251 608.21446436 2034.70047762 600.34667969 2041.05029297 C599.81558594 2041.48245117 599.28449219 2041.91460938 598.73730469 2042.35986328 C588.65576615 2050.56267474 578.32864636 2058.41069998 567.89306641 2066.15673828 C565.4046189 2068.00720797 562.92392908 2069.86767001 560.44433594 2071.72998047 C537.08534335 2089.20767354 512.00536108 2104.20017291 486.34667969 2118.05029297 C485.56164063 2118.47632812 484.77660156 2118.90236328 483.96777344 2119.34130859 C481.59732649 2120.62545923 479.22302999 2121.90210444 476.84667969 2123.17529297 C476.12158203 2123.5663623 475.39648438 2123.95743164 474.64941406 2124.36035156 C469.58052129 2127.05029297 469.58052129 2127.05029297 467.34667969 2127.05029297 C470.64940288 2133.54185234 474.59007223 2139.24435353 478.92529297 2145.06420898 C482.22325302 2149.498665 485.41980548 2153.98514867 488.53417969 2158.55029297 C493.04433227 2165.15582319 497.58966133 2171.73565577 502.15917969 2178.30029297 C503.18313843 2179.77139526 503.18313843 2179.77139526 504.2277832 2181.2722168 C510.34672501 2190.05803774 516.48446954 2198.83063029 522.62890625 2207.59863281 C526.12168449 2212.58363553 529.61130878 2217.57084678 533.1015625 2222.55761719 C535.9921616 2226.68738956 538.88344658 2230.81667767 541.77636719 2234.94482422 C548.66396031 2244.77529804 555.52962346 2254.62071593 562.38085938 2264.4765625 C568.43865995 2273.18849368 574.52150413 2281.88270238 580.61132812 2290.57226562 C582.40254818 2293.13007142 584.19131408 2295.68957849 585.97949219 2298.24951172 C592.71481387 2307.8888308 599.48480332 2317.50058484 606.34667969 2327.05029297 C612.76327111 2323.78571137 618.39480841 2319.90561548 624.14306641 2315.61669922 C629.19103113 2311.86374917 634.33090219 2308.27178153 639.53417969 2304.73779297 C648.69149891 2298.51281649 657.76914536 2292.17995121 666.83056641 2285.81640625 C670.99959825 2282.89007437 675.17334592 2279.97048479 679.34667969 2277.05029297 C684.3123477 2273.5749058 689.27763397 2270.09897862 694.24121094 2266.62060547 C704.07168475 2259.73301235 713.91710265 2252.86734919 723.77294922 2246.01611328 C732.49354647 2239.95228679 741.19664413 2233.86370985 749.89501953 2227.76806641 C754.88002225 2224.27528816 759.8672335 2220.78566387 764.85400391 2217.29541016 C768.98377628 2214.40481105 773.11306439 2211.51352608 777.24121094 2208.62060547 C787.07168475 2201.73301235 796.91710265 2194.86734919 806.77294922 2188.01611328 C816.31280583 2181.38261863 825.83140891 2174.71898494 835.34667969 2168.05029297 C846.80764585 2160.01797788 858.28129393 2152.00447236 869.77294922 2144.01611328 C876.03381996 2139.66264611 882.2878089 2135.29953843 888.53417969 2130.92529297 C889.34685303 2130.35625244 890.15952637 2129.78721191 890.99682617 2129.20092773 C895.12304379 2126.31080837 899.24742644 2123.41809721 903.37011719 2120.52294922 C907.52109334 2117.60907478 911.67684837 2114.70215196 915.83691406 2111.80126953 C917.54508301 2110.60953921 919.25207004 2109.41611341 920.95800781 2108.22119141 C923.52058968 2106.42852896 926.08907524 2104.64464827 928.65917969 2102.86279297 C929.4294751 2102.32195068 930.19977051 2101.7811084 930.9934082 2101.22387695 C939.94778108 2095.04684894 948.36121887 2092.00689778 959.34667969 2093.05029297 C971.31126289 2095.45771213 979.51572532 2100.67476706 986.40332031 2110.75927734 C986.94150391 2111.5771875 987.4796875 2112.39509766 988.03417969 2113.23779297 C989.24604057 2115.02320633 990.4582912 2116.80835519 991.67089844 2118.59326172 C992.27981934 2119.49995605 992.88874023 2120.40665039 993.51611328 2121.34082031 C996.40453565 2125.61605524 999.37767264 2129.83082668 1002.34667969 2134.05029297 C1003.51379466 2135.71664573 1004.68046044 2137.3833132 1005.84667969 2139.05029297 C1006.42417969 2139.87529297 1007.00167969 2140.70029297 1007.59667969 2141.55029297 C1014.01334635 2150.71695964 1020.43001302 2159.8836263 1026.84667969 2169.05029297 C1027.71329224 2170.28827637 1027.71329224 2170.28827637 1028.59741211 2171.55126953 C1029.7617248 2173.2146198 1030.92595034 2174.87803106 1032.09008789 2176.54150391 C1035.64094832 2181.61515533 1039.19517003 2186.68643117 1042.75170898 2191.75610352 C1044.50550713 2194.25936752 1046.25453203 2196.76591132 1048.00292969 2199.27294922 C1050.17022476 2202.37902923 1052.35817378 2205.46859669 1054.56542969 2208.54638672 C1055.5551372 2209.94343417 1056.54472709 2211.34056496 1057.53417969 2212.73779297 C1057.97979248 2213.34848633 1058.42540527 2213.95917969 1058.88452148 2214.58837891 C1065.33572244 2223.76888585 1066.82266501 2234.01737116 1065.34667969 2245.05029297 C1062.41337441 2255.82988809 1056.81370609 2262.44087776 1047.78417969 2268.55029297 C1046.25811319 2269.60494453 1044.73207258 2270.65963357 1043.20605469 2271.71435547 C1042.41005859 2272.25995117 1041.6140625 2272.80554687 1040.79394531 2273.36767578 C1037.52306985 2275.61656581 1034.27431771 2277.89632288 1031.02539062 2280.17675781 C1028.49905097 2281.94994917 1025.97009372 2283.71934805 1023.44042969 2285.48779297 C1020.1058977 2287.81941992 1016.77251345 2290.15266867 1013.44042969 2292.48779297 C1003.62661022 2299.36441565 993.79788318 2306.21916835 983.95776367 2313.05810547 C976.47732556 2318.25879706 969.01038747 2323.47853248 961.55175781 2328.71044922 C960.77767578 2329.25314453 960.00359375 2329.79583984 959.20605469 2330.35498047 C958.53026367 2330.82919434 957.85447266 2331.3034082 957.15820312 2331.79199219 C955.56734263 2332.89701847 953.95835063 2333.97584568 952.34667969 2335.05029297 C953.89004887 2339.56893496 956.36927246 2343.24266609 959.09667969 2347.11279297 C959.57331055 2347.79744629 960.04994141 2348.48209961 960.54101562 2349.1875 C962.13797161 2351.47858452 963.74224534 2353.76444042 965.34667969 2356.05029297 C966.54495055 2357.76488924 967.74285794 2359.47973957 968.94042969 2361.19482422 C971.83375602 2365.3356577 974.73243148 2369.47270122 977.63378906 2373.60791016 C980.54103565 2377.75330566 983.44376487 2381.90186338 986.34667969 2386.05029297 C990.00799138 2384.71861126 992.9817995 2383.08846415 996.16308594 2380.84716797 C997.08178467 2380.20376465 998.0004834 2379.56036133 998.94702148 2378.89746094 C999.92453369 2378.20539551 1000.9020459 2377.51333008 1001.90917969 2376.80029297 C1003.44022339 2375.72545654 1003.44022339 2375.72545654 1005.00219727 2374.62890625 C1007.10640556 2373.15127862 1009.20918427 2371.67161315 1011.31054688 2370.18994141 C1014.89761441 2367.66203373 1018.49352122 2365.14696503 1022.09057617 2362.63330078 C1024.54565838 2360.9172697 1026.99915773 2359.19899969 1029.45214844 2357.47998047 C1035.25032023 2353.41674035 1041.05052806 2349.35641055 1046.85180664 2345.29760742 C1050.99620087 2342.39762305 1055.13850856 2339.49475283 1059.27636719 2336.58544922 C1063.41349927 2333.67776718 1067.55840089 2330.78144925 1071.70800781 2327.89160156 C1073.54243903 2326.61150532 1075.37428665 2325.32770195 1077.20410156 2324.04101562 C1080.11993406 2321.99266751 1083.04486082 2319.95790248 1085.97167969 2317.92529297 C1086.85968262 2317.2976001 1087.74768555 2316.66990723 1088.66259766 2316.02319336 C1099.45982033 2308.57106025 1109.20204461 2305.19415313 1122.34667969 2307.05029297 C1134.27093511 2310.22379243 1141.09100213 2317.02292085 1147.78417969 2326.98779297 C1149.0119436 2328.77822659 1150.23981236 2330.56858832 1151.46777344 2332.35888672 C1152.10183105 2333.29071777 1152.73588867 2334.22254883 1153.38916016 2335.18261719 C1156.67443944 2339.99539973 1160.01397787 2344.77029012 1163.34667969 2349.55029297 C1164.69841 2351.4941867 1166.04997332 2353.43819657 1167.40136719 2355.38232422 C1173.36319448 2363.95226892 1179.35508703 2372.50114618 1185.34667969 2381.05029297 C1189.39107182 2386.82106278 1193.43346682 2392.59321483 1197.47119141 2398.36865234 C1198.78197971 2400.24286462 1200.09356815 2402.11651743 1201.40576172 2403.98974609 C1203.53421981 2407.02914721 1205.65947352 2410.07076822 1207.78417969 2413.11279297 C1208.43435059 2414.04003174 1209.08452148 2414.96727051 1209.75439453 2415.92260742 C1227.76385058 2441.74325446 1227.76385058 2441.74325446 1224.91308594 2458.61669922 C1221.69687932 2471.38164349 1213.11066894 2478.32862919 1202.70751953 2485.43554688 C1200.11263105 2487.21037546 1197.53564896 2489.00943844 1194.95996094 2490.81201172 C1191.0390456 2493.55277433 1187.11180491 2496.28406741 1183.17871094 2499.00732422 C1177.88905053 2502.67086841 1172.61486022 2506.35595161 1167.34667969 2510.05029297 C1160.19062225 2515.06561887 1153.02215507 2520.06279058 1145.84667969 2525.05029297 C1136.1088372 2531.81907145 1126.3878174 2538.61152984 1116.67626953 2545.41796875 C1112.56748923 2548.29695691 1108.45702304 2551.17353702 1104.34667969 2554.05029297 C1109.7717231 2562.82675127 1115.64960881 2571.2201853 1121.62744141 2579.625 C1124.76089763 2584.04530022 1127.86557021 2588.48575468 1130.97167969 2592.92529297 C1131.87768921 2594.21874634 1131.87768921 2594.21874634 1132.80200195 2595.53833008 C1133.64782837 2596.74694702 1133.64782837 2596.74694702 1134.51074219 2597.97998047 C1135.01041504 2598.69395996 1135.51008789 2599.40793945 1136.02490234 2600.14355469 C1137.15016077 2601.76680337 1138.25107409 2603.40688457 1139.34667969 2605.05029297 C1142.08576844 2603.73961913 1144.58394891 2602.29363698 1147.08496094 2600.57373047 C1147.81062256 2600.07623291 1148.53628418 2599.57873535 1149.28393555 2599.06616211 C1150.4596814 2598.25393188 1150.4596814 2598.25393188 1151.65917969 2597.42529297 C1152.48877197 2596.85480225 1153.31836426 2596.28431152 1154.1730957 2595.6965332 C1171.29458084 2583.90617494 1188.32299387 2571.98119012 1205.34667969 2560.05029297 C1206.97425248 2558.90962321 1208.60185673 2557.76899831 1210.22949219 2556.62841797 C1211.041521 2556.05929688 1211.8535498 2555.49017578 1212.69018555 2554.90380859 C1214.3306769 2553.75531866 1215.97211045 2552.60817333 1217.61450195 2551.46240234 C1222.21666884 2548.25102246 1226.80027428 2545.01615262 1231.36621094 2541.75341797 C1233.40133087 2540.31065841 1235.43648645 2538.86794912 1237.47167969 2537.42529297 C1238.40729736 2536.74998535 1239.34291504 2536.07467773 1240.30688477 2535.37890625 C1250.89174133 2527.90913244 1261.42312358 2523.50911421 1274.53417969 2525.73779297 C1286.66828499 2528.63692256 1293.99501472 2535.88001379 1300.78417969 2545.98779297 C1302.0119436 2547.77822659 1303.23981236 2549.56858832 1304.46777344 2551.35888672 C1305.10183105 2552.29071777 1305.73588867 2553.22254883 1306.38916016 2554.18261719 C1309.67443944 2558.99539973 1313.01397787 2563.77029012 1316.34667969 2568.55029297 C1317.69841 2570.4941867 1319.04997332 2572.43819657 1320.40136719 2574.38232422 C1325.79335144 2582.13313695 1331.21031997 2589.86640601 1336.62890625 2597.59863281 C1338.366206 2600.07816154 1340.10269349 2602.55825692 1341.83886719 2605.03857422 C1342.41789795 2605.86574951 1342.99692871 2606.6929248 1343.59350586 2607.54516602 C1344.7580377 2609.20917676 1345.92226524 2610.87340051 1347.08618164 2612.5378418 C1350.05675963 2616.7847977 1353.03380555 2621.02697247 1356.02246094 2625.26123047 C1379.88437993 2659.11015796 1379.88437993 2659.11015796 1378.10839844 2675.21044922 C1375.81253485 2688.35948613 1366.66074662 2696.37733767 1356.24511719 2703.76904297 C1354.4080627 2705.03541534 1352.5667312 2706.29560055 1350.72167969 2707.55029297 C1348.68121053 2708.95378678 1346.64084902 2710.3574371 1344.60058594 2711.76123047 C1343.56434082 2712.47118164 1342.5280957 2713.18113281 1341.46044922 2713.91259766 C1336.51080387 2717.31067627 1331.58546591 2720.7434793 1326.65917969 2724.17529297 C1325.70599854 2724.83835449 1324.75281738 2725.50141602 1323.77075195 2726.18457031 C1315.10077514 2732.2160515 1306.4475585 2738.27132413 1297.79833984 2744.33251953 C1292.81333713 2747.82529777 1287.82612587 2751.31492206 1282.83935547 2754.80517578 C1278.7095831 2757.69577489 1274.58029499 2760.58705986 1270.45214844 2763.47998047 C1260.62167462 2770.36757359 1250.77625673 2777.23323675 1240.92041016 2784.08447266 C1232.1998129 2790.14829915 1223.49671525 2796.23687608 1214.79833984 2802.33251953 C1209.81333713 2805.82529777 1204.82612587 2809.31492206 1199.83935547 2812.80517578 C1195.7095831 2815.69577489 1191.58029499 2818.58705986 1187.45214844 2821.47998047 C1177.62167462 2828.36757359 1167.77625673 2835.23323675 1157.92041016 2842.08447266 C1149.1998129 2848.14829915 1140.49671525 2854.23687608 1131.79833984 2860.33251953 C1126.81333713 2863.82529777 1121.82612587 2867.31492206 1116.83935547 2870.80517578 C1112.7095831 2873.69577489 1108.58029499 2876.58705986 1104.45214844 2879.47998047 C1095.59460325 2885.68590385 1086.72706081 2891.87708303 1077.84667969 2898.05029297 C1061.63539608 2909.32051723 1045.46643204 2920.64953548 1029.34667969 2932.05029297 C1034.75542244 2940.86806724 1040.68373998 2949.26956409 1046.67578125 2957.6953125 C1051.34520923 2964.2764496 1055.96462374 2970.89273027 1060.57666016 2977.51416016 C1061.76002988 2979.20972494 1062.94657524 2980.90307765 1064.13623047 2982.59423828 C1079.55870033 3004.52220175 1089.11417272 3025.55005556 1085.88574219 3052.96435547 C1081.54078287 3077.24501046 1068.36810441 3095.75371629 1048.3112793 3109.87768555 C1044.31620228 3112.63702928 1040.29766793 3115.36024772 1036.27001953 3118.07177734 C1031.86311268 3121.05437072 1027.51123234 3124.11347356 1023.15917969 3127.17529297 C1021.52006991 3128.32403465 1019.88074767 3129.47247324 1018.24121094 3130.62060547 C1017.43506348 3131.18553711 1016.62891602 3131.75046875 1015.79833984 3132.33251953 C1010.81333713 3135.82529777 1005.82612587 3139.31492206 1000.83935547 3142.80517578 C996.7095831 3145.69577489 992.58029499 3148.58705986 988.45214844 3151.47998047 C978.62167462 3158.36757359 968.77625673 3165.23323675 958.92041016 3172.08447266 C949.38055354 3178.71796731 939.86195046 3185.381601 930.34667969 3192.05029297 C924.57590988 3196.0946851 918.80375783 3200.1370801 913.02832031 3204.17480469 C911.15410804 3205.48559299 909.28045523 3206.79718143 907.40722656 3208.109375 C904.36782545 3210.23783309 901.32620444 3212.3630868 898.28417969 3214.48779297 C896.89332153 3215.46304932 896.89332153 3215.46304932 895.47436523 3216.45800781 C872.61324454 3232.40324527 851.10922043 3241.22611815 822.95605469 3236.80029297 C806.01226851 3233.27950623 792.34257747 3225.18527362 780.34667969 3213.05029297 C779.66347656 3212.37740234 778.98027344 3211.70451172 778.27636719 3211.01123047 C771.59424938 3203.99360884 766.48699605 3195.6406462 761.09521484 3187.62939453 C758.24510853 3183.42546782 755.32852048 3179.26881031 752.40917969 3175.11279297 C751.8268457 3174.28263672 751.24451172 3173.45248047 750.64453125 3172.59716797 C749.46470553 3170.9156072 748.28453 3169.23429181 747.10400391 3167.55322266 C744.22333927 3163.4503366 741.34711907 3159.34434217 738.47167969 3155.23779297 C737.8994165 3154.42060791 737.32715332 3153.60342285 736.73754883 3152.76147461 C731.58053047 3145.39297553 726.44604529 3138.00888588 721.3125 3130.62402344 C714.67900535 3121.08416683 708.01537166 3111.56556374 701.34667969 3102.05029297 C693.31436459 3090.5893268 685.30085908 3079.11567873 677.3125 3067.62402344 C671.24867351 3058.90342618 665.16009657 3050.20032853 659.06445312 3041.50195312 C655.57167488 3036.51695041 652.08205059 3031.52973916 648.59179688 3026.54296875 C645.70119777 3022.41319638 642.8099128 3018.28390827 639.91699219 3014.15576172 C633.02939907 3004.3252879 626.16373591 2994.47987001 619.3125 2984.62402344 C613.24867351 2975.90342618 607.16009657 2967.20032853 601.06445312 2958.50195312 C597.57167488 2953.51695041 594.08205059 2948.52973916 590.59179688 2943.54296875 C587.70119777 2939.41319638 584.8099128 2935.28390827 581.91699219 2931.15576172 C575.02939907 2921.3252879 568.16373591 2911.47987001 561.3125 2901.62402344 C554.67900535 2892.08416683 548.01537166 2882.56556374 541.34667969 2873.05029297 C533.31436459 2861.5893268 525.30085908 2850.11567873 517.3125 2838.62402344 C511.24867351 2829.90342618 505.16009657 2821.20032853 499.06445312 2812.50195312 C495.57167488 2807.51695041 492.08205059 2802.52973916 488.59179688 2797.54296875 C485.70119777 2793.41319638 482.8099128 2789.28390827 479.91699219 2785.15576172 C473.02939907 2775.3252879 466.16373591 2765.47987001 459.3125 2755.62402344 C452.67900535 2746.08416683 446.01537166 2736.56556374 439.34667969 2727.05029297 C431.31436459 2715.5893268 423.30085908 2704.11567873 415.3125 2692.62402344 C409.24867351 2683.90342618 403.16009657 2675.20032853 397.06445312 2666.50195312 C393.57167488 2661.51695041 390.08205059 2656.52973916 386.59179688 2651.54296875 C383.70119777 2647.41319638 380.8099128 2643.28390827 377.91699219 2639.15576172 C371.02939907 2629.3252879 364.16373591 2619.47987001 357.3125 2609.62402344 C351.24867351 2600.90342618 345.16009657 2592.20032853 339.06445312 2583.50195312 C335.57167488 2578.51695041 332.08205059 2573.52973916 328.59179688 2568.54296875 C325.70119777 2564.41319638 322.8099128 2560.28390827 319.91699219 2556.15576172 C313.02939907 2546.3252879 306.16373591 2536.47987001 299.3125 2526.62402344 C292.67900535 2517.08416683 286.01537166 2507.56556374 279.34667969 2498.05029297 C271.31436459 2486.5893268 263.30085908 2475.11567873 255.3125 2463.62402344 C249.24867351 2454.90342618 243.16009657 2446.20032853 237.06445312 2437.50195312 C233.57167488 2432.51695041 230.08205059 2427.52973916 226.59179688 2422.54296875 C223.70119777 2418.41319638 220.8099128 2414.28390827 217.91699219 2410.15576172 C211.02939907 2400.3252879 204.16373591 2390.47987001 197.3125 2380.62402344 C190.67900535 2371.08416683 184.01537166 2361.56556374 177.34667969 2352.05029297 C169.31436459 2340.5893268 161.30085908 2329.11567873 153.3125 2317.62402344 C147.24867351 2308.90342618 141.16009657 2300.20032853 135.06445312 2291.50195312 C131.57890544 2286.52727009 128.09620112 2281.55059522 124.61376953 2276.57373047 C121.60073117 2272.26817916 118.58512031 2267.96446315 115.56542969 2263.66357422 C114.9428125 2262.77605469 114.32019531 2261.88853516 113.67871094 2260.97412109 C112.49987304 2259.29383722 111.32024878 2257.61410461 110.13964844 2255.93505859 C109.59953125 2255.16484375 109.05941406 2254.39462891 108.50292969 2253.60107422 C107.96925781 2252.85664063 107.43558594 2252.11220703 106.88574219 2251.34521484 C105.34667969 2249.05029297 105.34667969 2249.05029297 103.99511719 2246.47412109 C102.6208052 2243.96305676 101.42905716 2242.01859485 99.34667969 2240.05029297 C95.59578173 2239.05333155 92.16814215 2239.46988552 88.34667969 2239.92529297 C86.40933659 2240.09119804 84.47182678 2240.25516448 82.53417969 2240.41748047 C81.41809326 2240.5205249 80.30200684 2240.62356934 79.15209961 2240.72973633 C58.55042852 2242.46515649 37.85323657 2242.23790579 17.19604492 2242.2355957 C13.45543501 2242.23551521 9.7149496 2242.24234682 5.97436523 2242.25610352 C-28.15656742 2242.37946191 -62.21191515 2241.40860225 -96.21582031 2238.30029297 C-97.13881927 2238.21792389 -98.06181824 2238.13555481 -99.01278687 2238.0506897 C-184.22401074 2230.39780173 -267.95372402 2213.67167425 -442.65332031 2148.05029297 C-443.67087402 2147.57237305 -444.68842773 2147.09445313 -445.73681641 2146.60205078 C-469.35715737 2135.48271572 -492.21981529 2123.40229194 -514.65332031 2110.05029297 C-516.43969196 2108.99415675 -518.22614734 2107.93816215 -520.01269531 2106.88232422 C-549.40647508 2089.44732618 -577.73528737 2070.10930133 -604.65332031 2049.05029297 C-605.80415498 2048.15809881 -606.95520263 2047.26617933 -608.10644531 2046.37451172 C-614.51419926 2041.39473109 -620.80400039 2036.30477991 -626.97192383 2031.03051758 C-630.29954832 2028.1852897 -633.67352015 2025.41312994 -637.09082031 2022.67529297 C-642.10507056 2018.59938195 -646.83374318 2014.26176503 -651.53198242 2009.83007812 C-654.50362241 2007.02888133 -657.50838102 2004.28425365 -660.59082031 2001.60498047 C-671.3958828 1992.20443371 -681.6382283 1982.15762056 -691.77832031 1972.05029297 C-692.55925049 1971.27395508 -693.34018066 1970.49761719 -694.14477539 1969.69775391 C-698.29381374 1965.53754181 -702.28063178 1961.29796163 -706.09228516 1956.82568359 C-707.70947525 1954.98642704 -709.4048899 1953.26456632 -711.15332031 1951.55029297 C-714.18926956 1948.5615696 -716.9984069 1945.43322818 -719.77832031 1942.20654297 C-721.82691125 1939.85066339 -723.92535033 1937.54521837 -726.02832031 1935.23779297 C-729.92695428 1930.91768506 -733.62835889 1926.46957916 -737.28613281 1921.94482422 C-739.33742201 1919.43656465 -741.42799359 1916.96890864 -743.54077148 1914.51245117 C-750.05461768 1906.92482993 -756.11111643 1899.0227374 -762.13818359 1891.04589844 C-763.49535434 1889.25835192 -764.86429591 1887.48127989 -766.24316406 1885.71044922 C-787.13939878 1858.85353815 -806.25995919 1830.29220879 -823.65332031 1801.05029297 C-824.49032471 1799.64577881 -824.49032471 1799.64577881 -825.34423828 1798.21289062 C-870.95012473 1721.42477958 -907.08399398 1638.83298326 -988.65332031 1226.05029297 C-988.70317078 1225.23818359 -988.75302124 1224.42607422 -988.80438232 1223.58935547 C-994.25301504 1134.59279264 -992.42588809 1044.75156248 -983.65332031 956.05029297 C-983.56221985 955.12528992 -983.47111938 954.20028687 -983.3772583 953.24725342 C-974.27827307 861.42477508 -957.01733971 770.22251662 -929.65332031 682.05029297 C-929.39699829 681.22394348 -929.14067627 680.39759399 -928.87658691 679.54620361 C-908.16576078 612.9697083 -881.95341141 547.38266414 -848.65332031 486.05029297 C-848.09354492 485.01453125 -847.53376953 483.97876953 -846.95703125 482.91162109 C-838.02403238 466.43726991 -828.56719852 450.33766823 -818.72021484 434.39892578 C-816.74039858 431.19137087 -814.77242498 427.97680091 -812.80566406 424.76123047 C-804.24400883 410.83539046 -795.13871848 397.36175472 -785.65332031 384.05029297 C-785.07308105 383.23302734 -784.4928418 382.41576172 -783.89501953 381.57373047 C-776.05443011 370.54640888 -767.94530715 359.74148412 -759.65332031 349.05029297 C-759.17121094 348.42638672 -758.68910156 347.80248047 -758.19238281 347.15966797 C-752.39119488 339.65978965 -746.42461038 332.33452071 -740.26269531 325.12841797 C-737.8785994 322.33363108 -735.57526516 319.47978252 -733.27832031 316.61279297 C-729.2024093 311.59854272 -724.86479238 306.8698701 -720.43310547 302.17163086 C-717.62941176 299.19734204 -714.88224765 296.18982776 -712.20019531 293.10498047 C-702.49079801 281.94572134 -692.09362513 271.39596356 -681.65332031 260.92529297 C-680.78175293 260.0491333 -679.91018555 259.17297363 -679.01220703 258.27026367 C-674.60320126 253.87182599 -670.13934914 249.61059724 -665.39355469 245.57617188 C-663.56448807 243.97240275 -661.85621285 242.28676009 -660.15332031 240.55029297 C-656.49061228 236.83842107 -652.61352602 233.44017779 -648.65332031 230.05029297 C-647.59849649 229.14289933 -646.54382045 228.23533389 -645.48925781 227.32763672 C-642.48208167 224.74181318 -639.46867228 222.16337269 -636.45263672 219.58789062 C-635.29249771 218.59649911 -634.13324937 217.60406393 -632.97509766 216.61035156 C-625.33286826 210.05362692 -617.543315 203.72985082 -609.58691406 197.55859375 C-607.52673877 195.95155297 -605.48013387 194.32822863 -603.43457031 192.70263672 C-594.17477724 185.37554439 -584.69776371 178.526843 -574.90332031 171.93310547 C-571.61249372 169.71581072 -568.39563897 167.42522003 -565.21582031 165.05029297 C-543.91650977 149.395792 -520.72038946 135.90146923 -497.65332031 123.05029297 C-496.76966797 122.55625977 -495.88601563 122.06222656 -494.97558594 121.55322266 C-424.4871799 82.29995983 -349.15831056 53.36180613 0 0 Z M-46.65332031 419.05029297 C-47.93142578 419.17388184 -49.20953125 419.2974707 -50.52636719 419.42480469 C-141.13011195 428.39267333 -229.66281794 461.42416403 -307.65332031 527.05029297 C-308.76320313 528.00742188 -308.76320313 528.00742188 -309.89550781 528.98388672 C-311.82498029 530.66152042 -313.73979256 532.35449902 -315.65332031 534.05029297 C-316.3682666 534.68040283 -317.08321289 535.3105127 -317.81982422 535.9597168 C-323.88065469 541.35010142 -329.7004247 546.94129969 -335.42260742 552.68920898 C-336.84669523 554.11869013 -338.27610075 555.54269808 -339.70605469 556.96630859 C-344.89886654 562.16635781 -349.89165831 567.45429338 -354.65332031 573.05029297 C-355.60243485 574.13355797 -356.55290249 575.21563932 -357.50488281 576.29638672 C-365.30562797 585.23934907 -372.57449051 594.52830858 -379.65332031 604.05029297 C-380.19102051 604.7723291 -380.7287207 605.49436523 -381.28271484 606.23828125 C-393.36395051 622.53179025 -404.51718462 639.47892145 -414.65332031 657.05029297 C-415.40452148 658.34966797 -415.40452148 658.34966797 -416.17089844 659.67529297 C-442.77456007 705.90975569 -462.4096259 754.33595011 -478.65332031 805.05029297 C-479.21164551 806.79197754 -479.21164551 806.79197754 -479.78125 808.56884766 C-505.28995474 889.14706235 -516.95287274 974.04982366 -522.46191406 1058.14709473 C-522.63989705 1060.8466925 -522.82542064 1063.5456628 -523.01269531 1066.24462891 C-526.82724387 1122.44026166 -526.73560986 1180.20203654 -522.83691406 1236.38928223 C-522.63903616 1239.25732771 -522.45061895 1242.12591474 -522.26269531 1244.99462891 C-516.436224 1332.75885897 -502.81129409 1420.23173246 -475.65332031 1504.05029297 C-475.41442078 1504.78761658 -475.17552124 1505.52494019 -474.92938232 1506.28460693 C-465.52119769 1535.21807795 -454.56170956 1563.4889938 -441.65332031 1591.05029297 C-441.21197754 1592.00387695 -440.77063477 1592.95746094 -440.31591797 1593.93994141 C-433.13824042 1609.41734689 -425.25999312 1624.32394046 -416.65332031 1639.05029297 C-415.5335155 1640.9838791 -414.41372386 1642.91747287 -413.29394531 1644.85107422 C-407.09506574 1655.50024558 -400.68464533 1665.93101128 -393.65332031 1676.05029297 C-392.94393311 1677.07630615 -392.94393311 1677.07630615 -392.22021484 1678.12304688 C-382.91639594 1691.5504588 -373.13690633 1704.51445521 -362.65332031 1717.05029297 C-361.99275635 1717.84040771 -361.99275635 1717.84040771 -361.31884766 1718.64648438 C-350.69185023 1731.31386531 -339.44162341 1743.33329496 -327.77832031 1755.05029297 C-326.7444519 1756.09117065 -326.7444519 1756.09117065 -325.68969727 1757.15307617 C-321.17346144 1761.65518008 -316.49026589 1765.89685595 -311.65332031 1770.05029297 C-310.57049347 1770.99990737 -309.48841839 1771.95037992 -308.40722656 1772.90185547 C-282.85148704 1795.19406067 -254.62795283 1814.21937927 -224.65332031 1830.05029297 C-223.76870117 1830.51790039 -222.88408203 1830.98550781 -221.97265625 1831.46728516 C-148.53426172 1869.94951123 -65.26047796 1885.62145005 156.07403564 1863.00695801 C201.28072781 1848.79040934 244.96244262 1829.12127266 283.34667969 1801.05029297 C284.31275146 1800.34791504 284.31275146 1800.34791504 285.29833984 1799.63134766 C298.62377333 1789.90413811 311.64010266 1779.71134987 323.72167969 1768.46435547 C325.76313942 1766.58694161 327.83051147 1764.77841484 329.93652344 1762.97607422 C334.97270758 1758.58373722 339.679699 1753.86747458 344.39233398 1749.13500977 C345.90660549 1747.61537629 347.42615399 1746.10116779 348.94628906 1744.58740234 C354.29024597 1739.24748162 359.45819536 1733.81444405 364.34667969 1728.05029297 C365.33115482 1726.92033839 366.31679987 1725.79140186 367.30371094 1724.66357422 C373.44072069 1717.58981841 379.35053277 1710.39971107 384.96142578 1702.89941406 C385.93692447 1701.59725914 386.91682874 1700.29839882 387.89990234 1699.00195312 C401.18850544 1681.46821612 413.3805406 1663.12689549 424.34667969 1644.05029297 C424.84458008 1643.18839355 425.34248047 1642.32649414 425.85546875 1641.43847656 C471.41441082 1562.2680554 498.63789392 1475.18663832 497.29919434 833.38240051 C491.8051929 812.99813672 485.29611019 792.98009861 478.34667969 773.05029297 C478.11636047 772.38598267 477.88604126 771.72167236 477.64874268 771.03723145 C454.27938783 703.63941679 420.30795211 638.8246995 374.34667969 584.05029297 C373.57493408 583.12990234 373.57493408 583.12990234 372.78759766 582.19091797 C371.27123968 580.38919018 369.74857566 578.59309633 368.22167969 576.80029297 C367.79169678 576.2946582 367.36171387 575.78902344 366.91870117 575.26806641 C358.61592457 565.6162982 349.86803813 556.38490159 340.8671875 547.38549805 C339.34181256 545.85791881 337.82467297 544.32245715 336.30761719 542.78662109 C330.76756294 537.21520089 325.0912133 532.0462498 318.93701172 527.14331055 C316.45545211 525.13818232 314.07957676 523.05726299 311.71386719 520.91748047 C246.36140148 462.28268071 157.20564857 430.43923172 59.34667969 419.05029297 C57.63206543 418.87240234 57.63206543 418.87240234 55.8828125 418.69091797 C22.07510636 415.37043002 -12.85896323 415.7103667 -46.65332031 419.05029297 Z M621.34667969 2338.05029297 C618.93923265 2341.66146353 618.73999219 2342.78358911 619.34667969 2347.05029297 C620.9347094 2350.13184526 622.93638647 2352.87513512 624.97167969 2355.67529297 C625.5563501 2356.50359619 626.14102051 2357.33189941 626.7434082 2358.18530273 C627.97970953 2359.93515221 629.2217901 2361.68093101 630.46923828 2363.42285156 C632.85859273 2366.76670496 635.20749021 2370.13785298 637.55664062 2373.51000977 C639.89315085 2376.86123112 642.24153208 2380.20406278 644.58935547 2383.54736328 C647.47002011 2387.65024934 650.34624031 2391.75624377 653.22167969 2395.86279297 C653.79394287 2396.67997803 654.36620605 2397.49716309 654.95581055 2398.33911133 C660.11282891 2405.70761041 665.24731409 2413.09170006 670.38085938 2420.4765625 C677.01435402 2430.01641911 683.67798771 2439.53502219 690.34667969 2449.05029297 C698.37899478 2460.51125913 706.3925003 2471.98490721 714.38085938 2483.4765625 C720.44468587 2492.19715976 726.5332628 2500.90025741 732.62890625 2509.59863281 C736.12168449 2514.58363553 739.61130878 2519.57084678 743.1015625 2524.55761719 C745.9921616 2528.68738956 748.88344658 2532.81667767 751.77636719 2536.94482422 C758.66396031 2546.77529804 765.52962346 2556.62071593 772.38085938 2566.4765625 C779.01435402 2576.01641911 785.67798771 2585.53502219 792.34667969 2595.05029297 C800.37899478 2606.51125913 808.3925003 2617.98490721 816.38085938 2629.4765625 C822.44468587 2638.19715976 828.5332628 2646.90025741 834.62890625 2655.59863281 C838.12168449 2660.58363553 841.61130878 2665.57084678 845.1015625 2670.55761719 C847.9921616 2674.68738956 850.88344658 2678.81667767 853.77636719 2682.94482422 C860.66396031 2692.77529804 867.52962346 2702.62071593 874.38085938 2712.4765625 C880.44468587 2721.19715976 886.5332628 2729.90025741 892.62890625 2738.59863281 C896.12168449 2743.58363553 899.61130878 2748.57084678 903.1015625 2753.55761719 C905.9921616 2757.68738956 908.88344658 2761.81667767 911.77636719 2765.94482422 C918.66396031 2775.77529804 925.52962346 2785.62071593 932.38085938 2795.4765625 C939.01435402 2805.01641911 945.67798771 2814.53502219 952.34667969 2824.05029297 C960.37899478 2835.51125913 968.3925003 2846.98490721 976.38085938 2858.4765625 C983.01435433 2868.01641955 989.67808259 2877.53495543 996.34667969 2887.05029297 C1004.04170732 2898.03081484 1011.73331155 2909.01292329 1019.34667969 2920.05029297 C1023.96694029 2919.51909194 1023.96694029 2919.51909194 1027.72167969 2916.92529297 C1029.79144447 2913.26340143 1029.74051202 2911.22491574 1029.34667969 2907.05029297 C1028.10653071 2904.64154207 1026.92515889 2902.7095594 1025.34667969 2900.55029297 C1024.91025146 2899.92501709 1024.47382324 2899.29974121 1024.02416992 2898.65551758 C1023.0354345 2897.24180974 1022.03943211 2895.83316646 1021.03759766 2894.42871094 C1019.17380959 2891.80713667 1017.33858903 2889.16700163 1015.50683594 2886.52294922 C1012.75339159 2882.54928868 1009.99304324 2878.58061363 1007.22558594 2874.61669922 C1004.07986055 2870.10769936 1000.95417307 2865.5856983 997.84667969 2861.05029297 C993.37662634 2854.52936445 988.86517143 2848.03773643 984.34667969 2841.55029297 C979.39774631 2834.44484114 974.46539963 2827.32897619 969.56933594 2820.18701172 C965.52163827 2814.28962431 961.43470276 2808.41977434 957.34667969 2802.55029297 C950.55034648 2792.79114971 943.79781594 2783.00317862 937.07421875 2773.19384766 C930.50628878 2763.61457432 923.88832992 2754.07108087 917.25024414 2744.5402832 C913.00145675 2738.43727806 908.77402073 2732.320451 904.56933594 2726.18701172 C900.52163848 2720.28962462 896.43474253 2714.41974632 892.34667969 2708.55029297 C887.39774631 2701.44484114 882.46539963 2694.32897619 877.56933594 2687.18701172 C873.52163848 2681.28962462 869.43474253 2675.41974632 865.34667969 2669.55029297 C860.39774631 2662.44484114 855.46539963 2655.32897619 850.56933594 2648.18701172 C846.52163848 2642.28962462 842.43474253 2636.41974632 838.34667969 2630.55029297 C833.39774631 2623.44484114 828.46539963 2616.32897619 823.56933594 2609.18701172 C819.52163848 2603.28962462 815.43474253 2597.41974632 811.34667969 2591.55029297 C806.39774631 2584.44484114 801.46539963 2577.32897619 796.56933594 2570.18701172 C792.52163848 2564.28962462 788.43474253 2558.41974632 784.34667969 2552.55029297 C779.39774631 2545.44484114 774.46539963 2538.32897619 769.56933594 2531.18701172 C765.52163848 2525.28962462 761.43474253 2519.41974632 757.34667969 2513.55029297 C752.39774631 2506.44484114 747.46539963 2499.32897619 742.56933594 2492.18701172 C738.52163848 2486.28962462 734.43474253 2480.41974632 730.34667969 2474.55029297 C725.39774631 2467.44484114 720.46539963 2460.32897619 715.56933594 2453.18701172 C711.52163827 2447.28962431 707.43470276 2441.41977434 703.34667969 2435.55029297 C696.55034648 2425.79114971 689.79781594 2416.00317862 683.07421875 2406.19384766 C676.51077047 2396.62111083 669.89825105 2387.08347545 663.26342773 2377.56005859 C659.76492757 2372.5358873 656.27668454 2367.50536197 652.81811523 2362.45361328 C651.0897908 2359.93022827 649.35329691 2357.41252943 647.61572266 2354.89550781 C646.74373573 2353.6276207 645.87578551 2352.3569508 645.01123047 2351.08398438 C643.69562901 2349.14893999 642.36635187 2347.22395363 641.03417969 2345.30029297 C640.45724365 2344.4406897 640.45724365 2344.4406897 639.86865234 2343.5637207 C637.19002338 2339.73472141 634.45006521 2337.28357545 630.34667969 2335.05029297 C626.02517406 2335.05029297 624.77030132 2335.61771971 621.34667969 2338.05029297 Z " fill="#495BE2" transform="translate(1508.6533203125,600.94970703125)"/>
</svg>
